Dr14 T.meter 1.0.16 
log date: 2019-11-16 23:53:08
	
----------------------------------------------------------------------------------------------	
Analyzed: Nas / Illmatic
----------------------------------------------------------------------------------------------	
	
DR       Peak            RMS         Duration    Track	
----------------------------------------------------------------------------------------------	
DR11	 -0.46 dB	 -13.64 dB	 1:44	 01-The Genesis	
DR11	 -0.39 dB	 -12.83 dB	 4:54	 02-N.Y. State Of Mind	
DR12	 -0.53 dB	 -13.64 dB	 3:29	 03-Life's A Bitch	
DR9	 -0.37 dB	 -10.89 dB	 4:50	 04-The World Is Yours	
DR9	 -0.44 dB	 -10.50 dB	 4:20	 05-Halftime	
DR9	 -0.28 dB	 -10.44 dB	 4:08	 06-Memory Lane (Sittin' In Da Park)	
DR10	 -0.37 dB	 -12.01 dB	 5:25	 07-One Love	
DR10	 -0.59 dB	 -11.95 dB	 3:18	 08-One Time For Your Mind	
DR13	 -0.13 dB	 -13.80 dB	 4:12	 09-Represent	
DR11	 -0.49 dB	 -12.45 dB	 3:22	 10-It Aint Hard to Tell	
----------------------------------------------------------------------------------------------	
	
Number of tracks:  10
Official DR value: DR10
	
Samplerate:        44100 Hz
Channels:          2
Bits per sample:   16
Bitrate:           951 kbps
Codec:             FLAC
==============================================================================================	

